<svg xmlns="http://www.w3.org/2000/svg" version="1.1" xmlns:xlink="http://www.w3.org/1999/xlink" xmlns:svgjs="http://svgjs.dev/svgjs" width="1000" height="1000" viewBox="0 0 1000 1000"><rect width="1000" height="1000" fill="#ffffff"></rect><g transform="matrix(0.7,0,0,0.7,149.57575757575756,282.1265587044535)"><svg viewBox="0 0 396 247" data-background-color="#ffffff" preserveAspectRatio="xMidYMid meet" height="623" width="1000" xmlns="http://www.w3.org/2000/svg" xmlns:xlink="http://www.w3.org/1999/xlink"><g id="tight-bounds" transform="matrix(1,0,0,1,0.2400000000000091,-0.09999999999999432)"><svg viewBox="0 0 395.52 247.2" height="247.2" width="395.52"><g><svg></svg></g><g><svg viewBox="0 0 395.52 247.2" height="247.2" width="395.52"><g transform="matrix(1,0,0,1,75.54432,92.17679038988408)"><svg viewBox="0 0 244.43135999999998 62.84641922023183" height="62.84641922023183" width="244.43135999999998"><g><svg viewBox="0 0 244.43135999999998 62.84641922023183" height="62.84641922023183" width="244.43135999999998"><g><svg viewBox="0 0 244.43135999999998 62.84641922023183" height="62.84641922023183" width="244.43135999999998"><g><svg viewBox="0 0 244.43135999999998 62.84641922023183" height="62.84641922023183" width="244.43135999999998"><g><svg viewBox="0 0 244.43135999999998 62.84641922023183" height="62.84641922023183" width="244.43135999999998"><g><svg viewBox="0 0 244.43135999999998 62.84641922023183" height="62.84641922023183" width="244.43135999999998"><g transform="matrix(1,0,0,1,0,0)"><svg width="244.43135999999998" viewBox="3.9000000953674316 -36 142.3400115966797 36.599998474121094" height="62.84641922023183" data-palette-color="#4299e1"><path d="M15.85 0.6L15.85 0.6Q13 0.6 11.03-0.58 9.05-1.75 8.1-3.8L8.1-3.8 7.8-3.8 7.35 0 3.9 0 3.9-36 8.1-36 8.1-21.25Q9.05-22.9 11.08-24.15 13.1-25.4 15.85-25.4L15.85-25.4Q19.05-25.4 21.5-23.9 23.95-22.4 25.35-19.5 26.75-16.6 26.75-12.45L26.75-12.45Q26.75-8.25 25.35-5.33 23.95-2.4 21.48-0.9 19 0.6 15.85 0.6ZM15.3-3.4L15.3-3.4Q18.45-3.4 20.48-5.63 22.5-7.85 22.5-12.4L22.5-12.4Q22.5-16.95 20.48-19.18 18.45-21.4 15.3-21.4L15.3-21.4Q12.15-21.4 10.1-19.18 8.05-16.95 8.05-12.4L8.05-12.4Q8.05-7.85 10.1-5.63 12.15-3.4 15.3-3.4ZM54.85 0L33.75 0 33.75-3.6 42.2-3.6 42.2-31.15Q42.2-32.4 40.95-32.4L40.95-32.4 34.65-32.4 34.65-36 41.95-36Q44.1-36 45.25-34.85 46.4-33.7 46.4-31.55L46.4-31.55 46.4-3.6 54.85-3.6 54.85 0ZM73.25 0.6L73.25 0.6Q68.75 0.6 66.45-2.1 64.15-4.8 64.15-9.9L64.15-9.9 64.15-24.8 68.34-24.8 68.34-10.4Q68.34-7.1 69.82-5.23 71.3-3.35 74.3-3.35L74.3-3.35Q77.3-3.35 79.34-5.38 81.4-7.4 81.4-11.2L81.4-11.2 81.4-24.8 85.59-24.8 85.59 0 82.09 0 81.65-3.75 81.4-3.75Q80.4-1.95 78.25-0.68 76.09 0.6 73.25 0.6ZM105.24 0.6L105.24 0.6Q101.74 0.6 99.07-1.03 96.39-2.65 94.84-5.58 93.29-8.5 93.29-12.4L93.29-12.4Q93.29-16.3 94.82-19.23 96.34-22.15 99.04-23.78 101.74-25.4 105.34-25.4L105.34-25.4Q108.94-25.4 111.49-23.78 114.04-22.15 115.39-19.5 116.74-16.85 116.74-13.8L116.74-13.8Q116.74-13.25 116.72-12.7 116.69-12.15 116.69-11.45L116.69-11.45 97.44-11.45Q97.59-8.7 98.72-6.88 99.84-5.05 101.57-4.15 103.29-3.25 105.24-3.25L105.24-3.25Q107.99-3.25 109.54-4.4 111.09-5.55 111.89-7.6L111.89-7.6 116.04-7.6Q115.19-4.15 112.49-1.78 109.79 0.6 105.24 0.6ZM105.24-21.65L105.24-21.65Q102.34-21.65 100.17-19.9 97.99-18.15 97.49-15L97.49-15 112.59-15Q112.39-18.1 110.37-19.88 108.34-21.65 105.24-21.65ZM142.54 0L124.19 0 124.19-3.6 130.54-3.6 130.54-19.95Q130.54-21.2 129.34-21.2L129.34-21.2 124.84-21.2 124.84-24.8 130.89-24.8Q132.54-24.8 133.54-23.9 134.54-23 134.54-21.25L134.54-21.25 134.54-20.2 134.74-20.2Q135.34-22.7 137.02-24.05 138.69-25.4 141.69-25.4L141.69-25.4 146.24-25.4 146.24-20.95 141.09-20.95Q138.04-20.95 136.39-18.93 134.74-16.9 134.74-13.75L134.74-13.75 134.74-3.6 142.54-3.6 142.54 0Z" opacity="1" transform="matrix(1,0,0,1,0,0)" fill="#4299e1" class="undefined-text-0" data-fill-palette-color="primary" id="text-0"></path></svg></g></svg></g></svg></g></svg></g></svg></g></svg></g></svg></g><path d="M200.641 86.177L200.641 27.968 9.376 27.968 9.376 219.232 200.641 219.232 200.641 161.023 194.974 161.023 194.974 213.565 15.044 213.565 15.044 33.635 194.974 33.635 194.974 86.177Z" fill="#4299e1" stroke="transparent" data-fill-palette-color="primary"></path></svg></g><defs></defs></svg><rect width="395.52" height="247.2" fill="none" stroke="none" visibility="hidden"></rect></g></svg></g></svg>